<svg xmlns="http://www.w3.org/2000/svg" width="269.274" height="121.506" viewBox="0 0 269.274 121.506"><g transform="translate(-2760.26 1149.506)"><path d="M2776.579-1299.875h9.4s-2.554,7.821-7,10.713-26.471,2.732-29.076.779,4.05-19.419,4.05-19.419l3.631-3.661h-5.232s4.314-7.17,10.478-8.073,14.393-.638,23.8,0,5.362,12.107,5.362,12.107h-11.065s1.255-4.05-.8-4.034-12.075-.573-13.4.656-6.391,11.921-5.193,14.317,11.274,1.567,12.75.491A4.983,4.983,0,0,0,2776.579-1299.875Z" transform="translate(53.476 239.767)" fill="#fff"/><path d="M2776.579-1299.875h9.4s-2.554,7.821-7,10.713-26.471,2.732-29.076.779,4.05-19.419,4.05-19.419l3.631-3.661h-5.232s4.314-7.17,10.478-8.073,14.393-.638,23.8,0,5.362,12.107,5.362,12.107h-11.065s1.255-4.05-.8-4.034-12.075-.573-13.4.656-6.391,11.921-5.193,14.317,11.274,1.567,12.75.491A4.983,4.983,0,0,0,2776.579-1299.875Z" transform="translate(183.542 239.767)" fill="#fff"/><path d="M11.225,32.484H0L7.184,12.637,11.225,8.6H5.747L8.891.064l.256,0C12.888.039,20.148,0,26.734,0c4.9,0,8.472.021,10.624.064A17.147,17.147,0,0,1,42.1.689,4.953,4.953,0,0,1,44.9,2.6a5.139,5.139,0,0,1,.676,3.341,17.9,17.9,0,0,1-1.426,5.169,16.37,16.37,0,0,1-3.107,4.976,13.062,13.062,0,0,1-3.438,2.657A10.653,10.653,0,0,1,33.68,20l0,0a2.846,2.846,0,0,1,.94.78,4.824,4.824,0,0,1,.947,3.122c0,3.074-2.666,8.523-2.693,8.578H23.529c.027-.063,2.718-6.3,1.806-7.893a.7.7,0,0,0-.549-.369c-.654-.08-1.989-.121-3.966-.121-3.368,0-7.488.12-7.529.121l-2.066,8.262ZM24.511,8.839c-2.607,0-4.787.07-4.809.071l-3.081,7.364c.034,0,4.864.3,8.723.3a18.314,18.314,0,0,0,4.292-.3,6.832,6.832,0,0,0,2.683-2.28,6.726,6.726,0,0,0,1.56-3.291,1.127,1.127,0,0,0-.652-1.209C32.008,8.952,27.814,8.839,24.511,8.839Z" transform="translate(2843.606 -1080.283)" fill="#fff"/><path d="M11.47,32.587A71.739,71.739,0,0,1,3.6,32.275,3.783,3.783,0,0,1,.636,30.554c-1.45-2.391.031-6.411.046-6.451L4.651,11.845l4.437-3.5H3.6s0-.006.008-.013a27.252,27.252,0,0,1,3.9-3.986,21.1,21.1,0,0,1,4.265-2.8A13.027,13.027,0,0,1,17.026.171C19.864.082,22.917,0,26.027,0,32.76,0,37.415.4,40.259,1.221a4.63,4.63,0,0,1,2.99,2.294c1.183,2.282.172,5.265.162,5.3-.043.113-4.345,11.38-7.122,17.628a9.358,9.358,0,0,1-6.068,4.981,19.225,19.225,0,0,1-5.64.864c-.273,0-.432-.008-.433-.008C24.082,32.278,17.5,32.587,11.47,32.587ZM26.077,7.84c-3.718,0-7.307.567-8.349,1.319-.823.594-2.023,2.884-3.21,6.124a29.675,29.675,0,0,0-1.9,7.427c-.012.493.058.8.209.925.693.554,4.6,1.078,8.037,1.078,3.046,0,5.25-.383,6.207-1.078,1.174-.854,2.778-3.678,4.086-7.195s1.814-6.38,1.284-7.282C31.952,8.333,29.574,7.84,26.077,7.84Z" transform="translate(2887.285 -1079.903)" fill="#fff"/><g transform="translate(2760.26 -1149.506)"><path d="M-865.312-756.666c.324-.027,50.3.107,50.3.107s-1.935,1.325-9.371,1.325-15.042,3.549-18.084,9.126-7.267,21.464,5.239,53.913C-859.534-717.546-866.69-748.048-865.312-756.666Z" transform="translate(865.476 813.302)" fill="#e0383c"/><path d="M-862.843-796.467c2.813-7.491,12.853-40.558,67.121-37.13-.17.243-9.891,4.575,0,8.844s21.677,1.553,33.061-5.041c-4.213,4.079-2.431,18.94,19.57,10.24a438.761,438.761,0,0,0,39.932-18.239s-2.856,3.119-1.318,4.2,31.79-14.757,31.79-14.757-7.3,7.3-5.9,8.7,5.63-3.023,14.925-2.685c16.081-5.71,37.246-3.965,39.586-2.275s-18.19-3.171-24.274,10.565,6.151,17.061,6.151,17.061-29.407-2.873-43.772,6.253-11.688,12.919-9.464,17.745c-10.655-.065-30.056.435-40.354,3.137,7.9-5.1,15.927-11.9,17.9-17-7.051,2.193-18.6,3.8-18.6,3.8s3.671,2.1,15-1.4c-1.9,3.3-9.268,11.484-22.62,14.6s-29.576-2.461-32.618-4.489c9.56-.725,14.5-1.646,20.414-4.857-11.8,2.451-13.992,3.843-33.427,4.857s-23.154,0-23.154,0,12.941-6.165,11.541-11.165C-806.507-804.584-833.665-794.731-862.843-796.467Z" transform="translate(864.469 848.354)" fill="#e0383c"/><path d="M-808.209-822.013s-34.494,1.318-54.707,34.274c34.714-2.417,46.359-3.735,61.518-7.909,14.72,0,32.356,5.491,46.637,3.074.634-.107-2.432,2.59-7.41,4.16a82.357,82.357,0,0,1-14.3,2.86c16.733,6.882,38.286,10.18,54.927-10.023-12.472,3.733-23.816.922-22.811.61,10.327-3.208,22.732-10.234,50.828-30.5-10.79,4.03-13.39,4.94-13.78,1.82-6.24,4.94-31.591,21.711-34.711,14.17-4.16,4.42-9.23,4.81-8.406,1.43-1.084-2.6-19.732,9.1-19.5,6.232a12.967,12.967,0,0,1,1.912-5.326c-2.094-1.366-8.973,3.9-26.654,6.374s-35.881-1.56-49.792,3.9c11.05-9.36,25.455-13.786,40.926-12.356s9.923-5.077,7-5.385-15.154,2.231-15.154-1.539S-808.209-822.013-808.209-822.013Z" transform="translate(864.497 839.603)" fill="#f6913b"/><path d="M-770.546-777.121s39.2,3.463,59.208.7c-7.672,5.128-52.094,13.715-72.285,9.437C-772.5-769.723-770.546-777.121-770.546-777.121Z" transform="translate(833.296 821.053)" fill="#faec1a"/><path d="M-661.509-801.593c7.2-2.242,24.249-6.983,26.525-8.895-3.232-.228-13.914,3.344-13.914,3.344s38.547-27.535,45.476-27.535c-2.186,2.238-4.956,5.7-5.263,7.084,2.692-1.846,21.93-17.251,40.781-12.7-17.551,4.42-14.561,13.13-8.97,20.671-15.991-7.54-21.581-8.84-28.471-1.17,15.341-2.86,14.3,0,14.3,0s-11.853.235-23.5,13.651-25.486,17.59-43.942,20.006c16.478-11.645,17.137-16.918,17.137-16.918S-652.15-800.363-661.509-801.593Z" transform="translate(787.497 845.593)" fill="#faec1a"/><path d="M-590.127-773.792c2.9-2,3.5-5.9,22.7-6.6C-573.127-784.792-589.727-784.492-590.127-773.792Z" transform="translate(760.206 823.391)" fill="#faec1a"/><path d="M-568.769-789.42c2.231-1.538,11.308-7,27.309-2.846-13-.615-13.154,4.385-13.847,6.693C-559.153-787.651-558.538-788.651-568.769-789.42Z" transform="translate(752.041 827.496)" fill="#e0383c"/><path d="M-511.481-824.994c.123-10.023,11.277-11.518,16.616-5.846C-502.458-831.518-508.758-829.718-511.481-824.994Z" transform="translate(730.139 842.915)" fill="#f6913b"/><path d="M-495.168-837.308c2.462-.538,8.923-2.539,16,0s16.616,10.846,21.616,11.077c-9.77,1.231-12.462.308-16.385-.923S-484.321-834.923-495.168-837.308Z" transform="translate(723.902 844.612)" fill="#e0383c"/><path d="M-462.538-838.67c4.459-.67,9.73.787,11.385,2.033s6.462,4.994,9,5.533c-5.385,1.077-7.308.077-9-.539S-458.5-836.874-462.538-838.67Z" transform="translate(711.427 844.716)" fill="#e0383c"/><path d="M-694.068-811.8c8.2-2.8,13-6.8,19.3-11s14.8,0,14.8,0-12.3,5-18.5,10S-693.868-811.3-694.068-811.8Z" transform="translate(799.944 839.299)" fill="#faec1a"/></g></g><text transform="translate(32.24 118.506)" fill="#fff" font-size="10" font-family="Montserrat-Medium, Montserrat" font-weight="500"><tspan x="0" y="0">SINDICALISMO SOCIAL DEL SIGLO XXI</tspan></text></svg>