<svg id="LogoMin" xmlns="http://www.w3.org/2000/svg" width="269.274" height="121.107" viewBox="0 0 269.274 121.107">
  <g id="Grupo_46" data-name="Grupo 46" transform="translate(-2760.26 1149.506)">
    <path id="Trazado_20" data-name="Trazado 20" d="M2782.486-1295.492h11.436s-3.107,9.514-8.516,13.033-32.2,3.324-35.372.948,4.927-23.624,4.927-23.624l4.418-4.454h-6.365s5.248-8.723,12.747-9.822,17.51-.776,28.951,0,6.523,14.729,6.523,14.729h-13.461s1.527-4.927-.971-4.907-14.69-.7-16.3.8-7.775,14.5-6.317,17.417,13.715,1.906,15.51.6S2782.057-1293.071,2782.486-1295.492Z" transform="translate(46.476 240.766)" fill="#fff"/>
    <path id="Trazado_19" data-name="Trazado 19" d="M2782.486-1295.492h11.436s-3.107,9.514-8.516,13.033-32.2,3.324-35.372.948,4.927-23.624,4.927-23.624l4.418-4.454h-6.365s5.248-8.723,12.747-9.822,17.51-.776,28.951,0,6.523,14.729,6.523,14.729h-13.461s1.527-4.927-.971-4.907-14.69-.7-16.3.8-7.775,14.5-6.317,17.417,13.715,1.906,15.51.6S2782.057-1293.071,2782.486-1295.492Z" transform="translate(204.705 240.766)" fill="#fff"/>
    <path id="Exclusi贸n_3" data-name="Exclusi贸n 3" d="M13.656,39.518H0L8.74,15.373l4.916-4.916H6.992L10.816.078l.311,0C15.678.047,24.51,0,32.523,0c5.958,0,10.306.026,12.925.078a20.859,20.859,0,0,1,5.765.76,6.026,6.026,0,0,1,3.413,2.328,6.252,6.252,0,0,1,.823,4.065,21.778,21.778,0,0,1-1.735,6.288,19.915,19.915,0,0,1-3.78,6.053A15.89,15.89,0,0,1,45.751,22.8a12.96,12.96,0,0,1-4.778,1.528l0,0a3.462,3.462,0,0,1,1.144.949,5.869,5.869,0,0,1,1.152,3.8c0,3.739-3.243,10.369-3.276,10.435H28.624c.033-.076,3.307-7.662,2.2-9.6a.856.856,0,0,0-.668-.448c-.8-.1-2.419-.147-4.825-.147-4.1,0-9.109.146-9.159.147L13.656,39.517ZM29.818,10.753c-3.171,0-5.823.086-5.85.087L20.22,19.8c.041,0,5.917.364,10.611.364a22.279,22.279,0,0,0,5.222-.364,8.311,8.311,0,0,0,3.264-2.774,8.183,8.183,0,0,0,1.9-4,1.371,1.371,0,0,0-.793-1.471C38.938,10.891,33.837,10.753,29.818,10.753Z" transform="translate(2845.448 -1079.268)" fill="#fff"/>
    <path id="Exclusi贸n_4" data-name="Exclusi贸n 4" d="M13.954,39.643a87.272,87.272,0,0,1-9.573-.379A4.6,4.6,0,0,1,.774,37.17c-1.764-2.908.037-7.8.056-7.848L5.658,14.41l5.4-4.261H4.381s0-.007.01-.015A33.153,33.153,0,0,1,9.139,5.285a25.664,25.664,0,0,1,5.188-3.4A15.848,15.848,0,0,1,20.713.207C24.165.1,27.88,0,31.662,0c8.192,0,13.855.486,17.314,1.485a5.632,5.632,0,0,1,3.638,2.791c1.439,2.776.21,6.405.2,6.442-.052.138-5.285,13.844-8.664,21.445-1.263,2.842-3.746,4.88-7.382,6.06A23.388,23.388,0,0,1,29.9,39.273c-.332,0-.525-.009-.527-.009C29.3,39.268,21.29,39.643,13.954,39.643ZM31.723,9.538c-4.523,0-8.89.69-10.157,1.6-1,.723-2.461,3.508-3.905,7.45a36.1,36.1,0,0,0-2.314,9.036c-.015.6.071.979.255,1.126.843.674,5.595,1.312,9.777,1.312,3.705,0,6.387-.466,7.55-1.312C34.357,27.716,36.308,24.28,37.9,20s2.207-7.762,1.562-8.859C38.871,10.138,35.978,9.538,31.723,9.538Z" transform="translate(2898.584 -1078.806)" fill="#fff"/>
    <g id="Grupo_41" data-name="Grupo 41" transform="translate(2760.26 -1149.506)">
      <path id="Trazado_1" data-name="Trazado 1" d="M-865.312-756.666c.324-.027,50.3.107,50.3.107s-1.935,1.325-9.371,1.325-15.042,3.549-18.084,9.126-7.267,21.464,5.239,53.913C-859.534-717.546-866.69-748.048-865.312-756.666Z" transform="translate(865.476 813.302)" fill="#e0383c"/>
      <path id="Trazado_2" data-name="Trazado 2" d="M-862.843-796.467c2.813-7.491,12.853-40.558,67.121-37.13-.17.243-9.891,4.575,0,8.844s21.677,1.553,33.061-5.041c-4.213,4.079-2.431,18.94,19.57,10.24a438.761,438.761,0,0,0,39.932-18.239s-2.856,3.119-1.318,4.2,31.79-14.757,31.79-14.757-7.3,7.3-5.9,8.7,5.63-3.023,14.925-2.685c16.081-5.71,37.246-3.965,39.586-2.275s-18.19-3.171-24.274,10.565,6.151,17.061,6.151,17.061-29.407-2.873-43.772,6.253-11.688,12.919-9.464,17.745c-10.655-.065-30.056.435-40.354,3.137,7.9-5.1,15.927-11.9,17.9-17-7.051,2.193-18.6,3.8-18.6,3.8s3.671,2.1,15-1.4c-1.9,3.3-9.268,11.484-22.62,14.6s-29.576-2.461-32.618-4.489c9.56-.725,14.5-1.646,20.414-4.857-11.8,2.451-13.992,3.843-33.427,4.857s-23.154,0-23.154,0,12.941-6.165,11.541-11.165C-806.507-804.584-833.665-794.731-862.843-796.467Z" transform="translate(864.469 848.354)" fill="#e0383c"/>
      <path id="Trazado_3" data-name="Trazado 3" d="M-808.209-822.013s-34.494,1.318-54.707,34.274c34.714-2.417,46.359-3.735,61.518-7.909,14.72,0,32.356,5.491,46.637,3.074.634-.107-2.432,2.59-7.41,4.16a82.357,82.357,0,0,1-14.3,2.86c16.733,6.882,38.286,10.18,54.927-10.023-12.472,3.733-23.816.922-22.811.61,10.327-3.208,22.732-10.234,50.828-30.5-10.79,4.03-13.39,4.94-13.78,1.82-6.24,4.94-31.591,21.711-34.711,14.17-4.16,4.42-9.23,4.81-8.406,1.43-1.084-2.6-19.732,9.1-19.5,6.232a12.967,12.967,0,0,1,1.912-5.326c-2.094-1.366-8.973,3.9-26.654,6.374s-35.881-1.56-49.792,3.9c11.05-9.36,25.455-13.786,40.926-12.356s9.923-5.077,7-5.385-15.154,2.231-15.154-1.539S-808.209-822.013-808.209-822.013Z" transform="translate(864.497 839.603)" fill="#f6913b"/>
      <path id="Trazado_4" data-name="Trazado 4" d="M-770.546-777.121s39.2,3.463,59.208.7c-7.672,5.128-52.094,13.715-72.285,9.437C-772.5-769.723-770.546-777.121-770.546-777.121Z" transform="translate(833.296 821.053)" fill="#faec1a"/>
      <path id="Trazado_5" data-name="Trazado 5" d="M-661.509-801.593c7.2-2.242,24.249-6.983,26.525-8.895-3.232-.228-13.914,3.344-13.914,3.344s38.547-27.535,45.476-27.535c-2.186,2.238-4.956,5.7-5.263,7.084,2.692-1.846,21.93-17.251,40.781-12.7-17.551,4.42-14.561,13.13-8.97,20.671-15.991-7.54-21.581-8.84-28.471-1.17,15.341-2.86,14.3,0,14.3,0s-11.853.235-23.5,13.651-25.486,17.59-43.942,20.006c16.478-11.645,17.137-16.918,17.137-16.918S-652.15-800.363-661.509-801.593Z" transform="translate(787.497 845.593)" fill="#faec1a"/>
      <path id="Trazado_6" data-name="Trazado 6" d="M-590.127-773.792c2.9-2,3.5-5.9,22.7-6.6C-573.127-784.792-589.727-784.492-590.127-773.792Z" transform="translate(760.206 823.391)" fill="#faec1a"/>
      <path id="Trazado_7" data-name="Trazado 7" d="M-568.769-789.42c2.231-1.538,11.308-7,27.309-2.846-13-.615-13.154,4.385-13.847,6.693C-559.153-787.651-558.538-788.651-568.769-789.42Z" transform="translate(752.041 827.496)" fill="#e0383c"/>
      <path id="Trazado_8" data-name="Trazado 8" d="M-511.481-824.994c.123-10.023,11.277-11.518,16.616-5.846C-502.458-831.518-508.758-829.718-511.481-824.994Z" transform="translate(730.139 842.915)" fill="#f6913b"/>
      <path id="Trazado_9" data-name="Trazado 9" d="M-495.168-837.308c2.462-.538,8.923-2.539,16,0s16.616,10.846,21.616,11.077c-9.77,1.231-12.462.308-16.385-.923S-484.321-834.923-495.168-837.308Z" transform="translate(723.902 844.612)" fill="#e0383c"/>
      <path id="Trazado_10" data-name="Trazado 10" d="M-462.538-838.67c4.459-.67,9.73.787,11.385,2.033s6.462,4.994,9,5.533c-5.385,1.077-7.308.077-9-.539S-458.5-836.874-462.538-838.67Z" transform="translate(711.427 844.716)" fill="#e0383c"/>
      <path id="Trazado_11" data-name="Trazado 11" d="M-694.068-811.8c8.2-2.8,13-6.8,19.3-11s14.8,0,14.8,0-12.3,5-18.5,10S-693.868-811.3-694.068-811.8Z" transform="translate(799.944 839.299)" fill="#faec1a"/>
    </g>
  </g>
</svg>
